<?xml version="1.0" encoding="utf-8"?>
<!-- Generator: Adobe Illustrator 24.2.1, SVG Export Plug-In . SVG Version: 6.00 Build 0)  -->
<svg version="1.1" id="Layer_1" xmlns="http://www.w3.org/2000/svg" xmlns:xlink="http://www.w3.org/1999/xlink" x="0px" y="0px"
	  width="24" height="24" viewBox="0 0 24 24" style="enable-background:new 0 0 24 24;" xml:space="preserve">
<style type="text/css">
	.st0{fill:#FFFFFF;}
</style>
<circle cx="12" cy="12" r="11.5"/>
<path class="st0" d="M6,8l3.8-3.8C10,4,10.2,3.9,10.4,3.9c0.5,0,0.8,0.4,0.8,0.8c0,0.2-0.1,0.4-0.2,0.6L8.3,8H6z M15.7,8H18
	l-3.8-3.8C14,4,13.8,3.9,13.6,3.9c-0.5,0-0.8,0.4-0.8,0.8c0,0.2,0.1,0.4,0.2,0.6L15.7,8z M18.7,11.2L18.7,11.2l-2.9,7.2H8.3
	l-2.9-7.2l0,0H18.7z M21.7,9.6H2.3v1.6h0.5c0.4,0,0.8,0.2,1,0.6l3.3,8.2h9.7l3.3-8.2c0.2-0.4,0.6-0.6,1-0.6h0.5
	C21.7,11.2,21.7,9.6,21.7,9.6z"/>
<polygon class="st0" points="4.6,10.8 19.4,10.8 16.3,19.3 7.8,19.3 "/>
</svg>
